<svg id="Layer_1" data-name="Layer 1" xmlns="http://www.w3.org/2000/svg" viewBox="0 0 730.97 686.21"><defs><style>.cls-1{fill:#e0e0e0;}.cls-2{fill:#ebebeb;}.cls-3{fill:#fff;}.cls-4{fill:#f5f5f5;}.cls-5{fill:#263238;}.cls-6{fill:#e8505b;}.cls-7{fill:#ffbe9d;}.cls-8{fill:#eb996e;}.cls-9{fill:#455a64;}.cls-10{opacity:0.7;}.cls-11,.cls-12{opacity:0.4;}.cls-13{fill:#fafafa;}.cls-14{fill:#1a2e35;}</style></defs><title>main page doodle</title><circle class="cls-1" cx="82.29" cy="482.08" r="25.09"/><circle class="cls-2" cx="725.28" cy="678.71" r="25.09" transform="translate(-861.53 514.59) rotate(-45)"/><circle class="cls-2" cx="627.38" cy="678.71" r="25.09" transform="translate(-890.2 445.37) rotate(-45)"/><path class="cls-1" d="M594,684.11H757.9s-1.68,67.58-45.68,75.84l-.69,14.35H637.74V759.69S594,748.51,594,684.11Z" transform="translate(-594.03 -197.04)"/><path class="cls-3" d="M712.22,760c0,.24-16.73.43-37.36.43s-37.36-.19-37.36-.43,16.73-.42,37.36-.42S712.22,759.72,712.22,760Z" transform="translate(-594.03 -197.04)"/><path class="cls-3" d="M751.55,718.93s-.35.06-1,.13l-3.09.27a41.76,41.76,0,0,1-11.9-.58,23.69,23.69,0,0,1-8-3.2,18.29,18.29,0,0,1-6.8-7.65,13.3,13.3,0,0,1-1.14-5.66,10,10,0,0,1,2.07-5.77,7,7,0,0,1,2.56-2,6.12,6.12,0,0,1,3.34-.44,8,8,0,0,1,5.49,4,10.69,10.69,0,0,1,.94,7.1,20.14,20.14,0,0,1-2.82,7,24.75,24.75,0,0,1-12.2,9.86,23.7,23.7,0,0,1-16.75-.18,24.93,24.93,0,0,1-7.61-4.63,17,17,0,0,1-5.16-7.57,8.42,8.42,0,0,1,0-4.77,6.35,6.35,0,0,1,3-3.81c3.07-1.57,6.91-.41,9.11,2.07s3.3,5.78,3.83,9a27.72,27.72,0,0,1-.3,10,29.29,29.29,0,0,1-10.6,17.16,26.54,26.54,0,0,1-9.42,4.61,29.9,29.9,0,0,1-10.59.71,28.05,28.05,0,0,1-18.4-9.53,19.82,19.82,0,0,1-4.52-9.3,13.36,13.36,0,0,1,2.1-9.91,10.13,10.13,0,0,1,8.64-4.77,9.5,9.5,0,0,1,8.06,5.35,7.14,7.14,0,0,1,.33,4.94,9.39,9.39,0,0,1-2.59,4.13,18.74,18.74,0,0,1-8.3,4.37c-12,3.28-24.78-.36-32.6-8.14a19,19,0,0,1-4.42-6.79,13.41,13.41,0,0,1-.44-7.79,11,11,0,0,1,4-6.31,9.49,9.49,0,0,1,7-1.7,9.31,9.31,0,0,1,6,3.29,10,10,0,0,1,2.22,6.1,9.72,9.72,0,0,1-1.92,5.82,14.47,14.47,0,0,1-4.32,3.82,33.73,33.73,0,0,1-9.61,3.61,61.55,61.55,0,0,1-8.51,1.42,59.85,59.85,0,0,1-11.92-.07,38.36,38.36,0,0,1-4.11-.63s.36,0,1.05.12,1.72.22,3.08.34a62,62,0,0,0,11.87-.09,61.16,61.16,0,0,0,8.44-1.48,33.86,33.86,0,0,0,9.47-3.63,14,14,0,0,0,4.14-3.7,9.07,9.07,0,0,0,1.79-5.52,9.32,9.32,0,0,0-2.11-5.74,8.71,8.71,0,0,0-5.62-3.06,8.9,8.9,0,0,0-6.5,1.6,10.37,10.37,0,0,0-3.76,6,12.72,12.72,0,0,0,.45,7.41,18.16,18.16,0,0,0,4.28,6.52c7.62,7.56,20.17,11.11,31.88,7.88a17.92,17.92,0,0,0,7.95-4.18,8.56,8.56,0,0,0,2.37-3.78,6.28,6.28,0,0,0-.3-4.39,8.7,8.7,0,0,0-7.35-4.86,8.31,8.31,0,0,0-4.48,1.15,10.7,10.7,0,0,0-3.43,3.27,12.56,12.56,0,0,0-2,9.3,19.12,19.12,0,0,0,4.34,8.89,27.23,27.23,0,0,0,17.85,9.23,28.88,28.88,0,0,0,10.28-.69,25.63,25.63,0,0,0,9.11-4.45,28.49,28.49,0,0,0,10.3-16.66,26.8,26.8,0,0,0,.3-9.69c-.51-3.15-1.51-6.32-3.6-8.6s-5.52-3.27-8.14-1.92a5.61,5.61,0,0,0-2.63,3.34,7.69,7.69,0,0,0,0,4.33,16.2,16.2,0,0,0,4.92,7.2,24,24,0,0,0,7.36,4.51,22.88,22.88,0,0,0,16.23.21,24,24,0,0,0,11.89-9.54,19.63,19.63,0,0,0,2.76-6.71,10.08,10.08,0,0,0-.85-6.7,7.46,7.46,0,0,0-5-3.76,5.69,5.69,0,0,0-3,.39,6.54,6.54,0,0,0-2.36,1.87,9.41,9.41,0,0,0-2,5.46,13.05,13.05,0,0,0,1.07,5.44,17.87,17.87,0,0,0,6.58,7.49,23.45,23.45,0,0,0,7.86,3.22,42.81,42.81,0,0,0,11.82.74l3.09-.18C751.2,718.93,751.55,718.93,751.55,718.93Z" transform="translate(-594.03 -197.04)"/><path class="cls-2" d="M1244.51,394.9c-.63,2.15-11.55,19.35-27.3,25.21s-27.46,12.32-23.08,20,23.72,3.51,23.72,3.51-39.25,42.66-2.3,67c45,29.73,92.14-76.69,92.14-76.69Z" transform="translate(-594.03 -197.04)"/><path class="cls-1" d="M1300.27,448.61c-.12.2-15-8.65-33.17-19.77s-32.86-20.3-32.73-20.5,15,8.65,33.17,19.77S1300.39,448.41,1300.27,448.61Z" transform="translate(-594.03 -197.04)"/><path class="cls-1" d="M1293.3,461.37c-.13.2-16.17-9.22-35.84-21s-35.52-21.56-35.4-21.76,16.17,9.21,35.84,21S1293.42,461.17,1293.3,461.37Z" transform="translate(-594.03 -197.04)"/><path class="cls-1" d="M1284.88,473.46c-.13.2-18.14-10.4-40.24-23.67s-39.92-24.21-39.8-24.41,18.13,10.4,40.24,23.68S1285,473.26,1284.88,473.46Z" transform="translate(-594.03 -197.04)"/><path class="cls-1" d="M1274.37,488.42c-.13.2-14.09-8.31-31.19-19s-30.86-19.55-30.73-19.75,14.08,8.32,31.19,19S1274.49,488.22,1274.37,488.42Z" transform="translate(-594.03 -197.04)"/><path class="cls-1" d="M1262,502.87c-.13.2-13.14-8.19-29-18.73s-28.7-19.25-28.57-19.45,13.13,8.19,29,18.74S1262.15,502.68,1262,502.87Z" transform="translate(-594.03 -197.04)"/><path class="cls-1" d="M1246.25,512.9a10.49,10.49,0,0,1-2-.93c-1.24-.64-3-1.61-5.19-2.84-4.36-2.45-10.3-6-16.72-10.09s-12.11-8.05-16.15-11c-2-1.46-3.65-2.67-4.75-3.53a11.17,11.17,0,0,1-1.66-1.4,10.1,10.1,0,0,1,1.85,1.13l4.9,3.31c4.13,2.8,9.86,6.64,16.27,10.75s12.29,7.71,16.56,10.29l5,3.07A11.17,11.17,0,0,1,1246.25,512.9Z" transform="translate(-594.03 -197.04)"/><path class="cls-1" d="M1209.3,444.62c-.06.2-4.22-1.11-8.71-4s-7.46-6.06-7.3-6.2,3.34,2.68,7.76,5.48S1209.4,444.38,1209.3,444.62Z" transform="translate(-594.03 -197.04)"/><path class="cls-1" d="M1304.76,431.78a5.28,5.28,0,0,1-.56.93l-1.76,2.54c-1.53,2.21-3.79,5.37-6.62,9.25-5.66,7.76-13.64,18.36-22.75,29.84s-17.64,21.65-23.92,28.92c-3.13,3.63-5.7,6.55-7.5,8.54l-2.09,2.28a4.86,4.86,0,0,1-.77.76,5.28,5.28,0,0,1,.64-.87l2-2.39,7.29-8.71c6.16-7.37,14.6-17.6,23.71-29.06s17.16-22,22.94-29.67l6.84-9.08,1.88-2.46A5.77,5.77,0,0,1,1304.76,431.78Z" transform="translate(-594.03 -197.04)"/><path class="cls-1" d="M1292,422.68c.18.14-15.47,20.57-35,45.61s-35.44,45.23-35.63,45.09,15.46-20.57,34.95-45.62S1291.8,422.53,1292,422.68Z" transform="translate(-594.03 -197.04)"/><path class="cls-1" d="M1274.17,412.58a5,5,0,0,1-.51,1l-1.6,2.82c-1.42,2.44-3.53,5.93-6.28,10.16-5.47,8.47-13.6,19.8-23.19,31.84s-18.65,22.62-25.18,30.28l-7.79,9-2.16,2.43a5.3,5.3,0,0,1-.79.81,6.57,6.57,0,0,1,.66-.92l2-2.53c1.86-2.25,4.43-5.38,7.58-9.22,6.43-7.76,15.41-18.4,25-30.43s17.77-23.26,23.35-31.64c2.81-4.18,5-7.61,6.51-10,.71-1.13,1.29-2,1.74-2.74A6.65,6.65,0,0,1,1274.17,412.58Z" transform="translate(-594.03 -197.04)"/><path class="cls-1" d="M1259.55,404.21c.19.14-13.15,17.8-29.78,39.43s-30.28,39.06-30.47,38.91,13.15-17.79,29.79-39.43S1259.37,404.06,1259.55,404.21Z" transform="translate(-594.03 -197.04)"/><path class="cls-1" d="M1248.56,397.05a17.29,17.29,0,0,1-1.41,2.35c-.46.75-1.06,1.66-1.81,2.66s-1.55,2.2-2.57,3.41a91.79,91.79,0,0,1-7.41,8.26,94.11,94.11,0,0,1-21.87,16.06,91.41,91.41,0,0,1-10.1,4.61c-1.46.6-2.83,1-4,1.43s-2.23.71-3.08.93a19.33,19.33,0,0,1-2.67.64,15.72,15.72,0,0,1,2.57-1c.84-.27,1.86-.61,3-1.06s2.51-.9,4-1.54a105.67,105.67,0,0,0,9.95-4.74,100.52,100.52,0,0,0,21.69-15.94,105,105,0,0,0,7.5-8.07c1-1.18,1.87-2.33,2.65-3.31s1.41-1.85,1.92-2.56A16.3,16.3,0,0,1,1248.56,397.05Z" transform="translate(-594.03 -197.04)"/><rect class="cls-1" x="521.41" y="176.49" width="209.56" height="22.13"/><path class="cls-4" d="M1181.88,394.9c-.64,2.15-11.56,19.35-27.3,25.21s-27.46,12.32-23.09,20,23.72,3.51,23.72,3.51-39.24,42.66-2.3,67C1198,540.42,1245.05,434,1245.05,434Z" transform="translate(-594.03 -197.04)"/><path class="cls-1" d="M1237.64,448.61c-.13.2-15-8.65-33.18-19.77s-32.85-20.3-32.73-20.5,15,8.65,33.18,19.77S1237.76,448.41,1237.64,448.61Z" transform="translate(-594.03 -197.04)"/><path class="cls-1" d="M1230.66,461.37c-.12.2-16.17-9.22-35.83-21s-35.52-21.56-35.4-21.76,16.16,9.21,35.84,21S1230.78,461.17,1230.66,461.37Z" transform="translate(-594.03 -197.04)"/><path class="cls-1" d="M1222.24,473.46c-.12.2-18.14-10.4-40.24-23.67s-39.92-24.21-39.8-24.41,18.14,10.4,40.24,23.68S1222.36,473.26,1222.24,473.46Z" transform="translate(-594.03 -197.04)"/><path class="cls-1" d="M1211.73,488.42c-.12.2-14.09-8.31-31.18-19s-30.86-19.55-30.74-19.75,14.09,8.32,31.19,19S1211.86,488.22,1211.73,488.42Z" transform="translate(-594.03 -197.04)"/><path class="cls-1" d="M1199.38,502.87c-.13.2-13.13-8.19-29-18.73s-28.7-19.25-28.57-19.45,13.13,8.19,29,18.74S1199.51,502.68,1199.38,502.87Z" transform="translate(-594.03 -197.04)"/><path class="cls-1" d="M1183.61,512.9a10.49,10.49,0,0,1-2-.93c-1.24-.64-3-1.61-5.19-2.84-4.35-2.45-10.3-6-16.72-10.09s-12.1-8.05-16.15-11c-2-1.46-3.64-2.67-4.75-3.53a11.91,11.91,0,0,1-1.66-1.4,9.93,9.93,0,0,1,1.86,1.13l4.9,3.31c4.13,2.8,9.85,6.64,16.26,10.75s12.29,7.71,16.56,10.29l5.06,3.07A10.71,10.71,0,0,1,1183.61,512.9Z" transform="translate(-594.03 -197.04)"/><path class="cls-1" d="M1146.66,444.62c-.06.2-4.21-1.11-8.7-4s-7.46-6.06-7.3-6.2,3.33,2.68,7.75,5.48S1146.76,444.38,1146.66,444.62Z" transform="translate(-594.03 -197.04)"/><path class="cls-1" d="M1242.12,431.78a4.58,4.58,0,0,1-.56.93l-1.75,2.54c-1.53,2.21-3.8,5.37-6.63,9.25-5.65,7.76-13.64,18.36-22.75,29.84s-17.63,21.65-23.91,28.92c-3.14,3.63-5.71,6.55-7.51,8.54l-2.08,2.28a5.46,5.46,0,0,1-.77.76,4.6,4.6,0,0,1,.64-.87c.5-.61,1.16-1.4,2-2.39l7.3-8.71c6.15-7.37,14.59-17.6,23.7-29.06s17.16-22,22.94-29.67l6.84-9.08c.77-1,1.4-1.82,1.88-2.46A6.72,6.72,0,0,1,1242.12,431.78Z" transform="translate(-594.03 -197.04)"/><path class="cls-1" d="M1229.35,422.68c.19.14-15.46,20.57-34.95,45.61s-35.44,45.23-35.62,45.09,15.46-20.57,35-45.62S1229.17,422.53,1229.35,422.68Z" transform="translate(-594.03 -197.04)"/><path class="cls-1" d="M1211.54,412.58a5.74,5.74,0,0,1-.51,1l-1.61,2.82c-1.41,2.44-3.53,5.93-6.28,10.16-5.47,8.47-13.6,19.8-23.19,31.84s-18.64,22.62-25.18,30.28l-7.79,9-2.15,2.43a5,5,0,0,1-.8.81,6.27,6.27,0,0,1,.67-.92c.51-.65,1.19-1.49,2-2.53l7.58-9.22c6.42-7.76,15.4-18.4,25-30.43s17.77-23.26,23.36-31.64c2.81-4.18,5-7.61,6.5-10l1.74-2.74A6.09,6.09,0,0,1,1211.54,412.58Z" transform="translate(-594.03 -197.04)"/><path class="cls-1" d="M1196.92,404.21c.18.14-13.15,17.8-29.79,39.43s-30.28,39.06-30.47,38.91,13.15-17.79,29.79-39.43S1196.73,404.06,1196.92,404.21Z" transform="translate(-594.03 -197.04)"/><path class="cls-1" d="M1185.92,397.05a16.41,16.41,0,0,1-1.4,2.35c-.47.75-1.06,1.66-1.82,2.66s-1.55,2.2-2.56,3.41a93.61,93.61,0,0,1-7.42,8.26,103.81,103.81,0,0,1-10.35,8.82,102.3,102.3,0,0,1-11.51,7.24,92.25,92.25,0,0,1-10.1,4.61c-1.46.6-2.83,1-4,1.43s-2.22.71-3.08.93a18.59,18.59,0,0,1-2.67.64,16.23,16.23,0,0,1,2.57-1c.84-.27,1.86-.61,3-1.06s2.52-.9,4-1.54a103.36,103.36,0,0,0,10-4.74,99.87,99.87,0,0,0,21.69-15.94,103,103,0,0,0,7.5-8.07c1-1.18,1.88-2.33,2.65-3.31s1.42-1.85,1.92-2.56A17.42,17.42,0,0,1,1185.92,397.05Z" transform="translate(-594.03 -197.04)"/><rect class="cls-1" x="619.61" y="65.77" width="13.4" height="13.4"/><rect class="cls-4" x="564.17" y="97.01" width="124.91" height="78.83"/><path class="cls-4" d="M1158.2,294.05s19.12-20,67.07-19.17,57.84,19.17,57.84,19.17Z" transform="translate(-594.03 -197.04)"/><path class="cls-1" d="M1282.63,295.34c0,.23-28.08.42-62.71.42s-62.72-.19-62.72-.42,28.07-.43,62.72-.43S1282.63,295.1,1282.63,295.34Z" transform="translate(-594.03 -197.04)"/><path class="cls-1" d="M688.59,98.29h28.21a4.53,4.53,0,0,1,4.53,4.53v1.73a4.53,4.53,0,0,1-4.53,4.53H688.59a0,0,0,0,1,0,0V98.29a0,0,0,0,1,0,0Z"/><path class="cls-1" d="M1125.92,295.34h28.21a4.53,4.53,0,0,1,4.53,4.53v1.73a4.53,4.53,0,0,1-4.53,4.53h-28.21a0,0,0,0,1,0,0V295.34A0,0,0,0,1,1125.92,295.34Z" transform="translate(1690.55 404.42) rotate(-180)"/><rect class="cls-1" x="609.72" y="61.91" width="33.81" height="7.73" rx="3.24"/><path class="cls-5" d="M1320,773.87c0,.24-161.8.43-361.34.43s-361.38-.19-361.38-.43,161.77-.42,361.38-.42S1320,773.64,1320,773.87Z" transform="translate(-594.03 -197.04)"/><path class="cls-6" d="M1079.81,534.27c-.65,2.8-14.6,129.77-14.6,129.77L1052.59,682l-3.42,27.47,26.17,64.86H881.39s-3.07-34.27-2.81-43.43,4.94-42.78,4.94-42.78L883.07,654l-7.35-148.79L941.45,484c39.7-6.84,98.14,22.87,98.14,22.87Z" transform="translate(-594.03 -197.04)"/><path class="cls-5" d="M1054.6,439.63c8.64-.54,15.26-7.76,20-15,4.45-6.75,8.25-14.33,8.3-22.41,0-7-2.77-13.69-5.52-20.15-2.83-6.64-5.71-13.37-10.16-19.06s-10.74-10.31-17.91-11.2" transform="translate(-594.03 -197.04)"/><path class="cls-7" d="M953.66,473.46l.09-2.14,5.07-124,2.8-7,62-8.57a35.69,35.69,0,0,1,38.44,34.36c.8,22.56.89,50.14-2.25,66.88-6.3,33.65-32.32,37.24-32.32,37.24s-.45,8.81-.93,21.53c-.36,9.62-8.85,37.32-18.47,37.6-4.13.11-15.4-3.47-20.78-4.25C953.4,520.14,953.66,473.46,953.66,473.46Z" transform="translate(-594.03 -197.04)"/><path class="cls-5" d="M1050.63,385.76a4.33,4.33,0,0,1-4.3,4.26,4.15,4.15,0,0,1-4.36-4,4.33,4.33,0,0,1,4.29-4.26A4.15,4.15,0,0,1,1050.63,385.76Z" transform="translate(-594.03 -197.04)"/><path class="cls-5" d="M1055.7,380.27c-.55.55-3.77-2-8.43-2.09s-8.15,2.12-8.64,1.54c-.24-.26.33-1.27,1.85-2.31a11.93,11.93,0,0,1,6.94-1.93,11.4,11.4,0,0,1,6.69,2.37C1055.51,379,1056,380,1055.7,380.27Z" transform="translate(-594.03 -197.04)"/><path class="cls-5" d="M1005,385.32a4.34,4.34,0,0,1-4.3,4.26,4.15,4.15,0,0,1-4.36-4,4.34,4.34,0,0,1,4.3-4.26A4.15,4.15,0,0,1,1005,385.32Z" transform="translate(-594.03 -197.04)"/><path class="cls-5" d="M1009.83,379.87c-.56.55-3.78-2-8.44-2.08s-8.14,2.12-8.64,1.53c-.24-.26.33-1.26,1.86-2.3a11.78,11.78,0,0,1,6.93-1.93,11.43,11.43,0,0,1,6.7,2.36C1009.64,378.59,1010.1,379.63,1009.83,379.87Z" transform="translate(-594.03 -197.04)"/><path class="cls-5" d="M1025.8,414.93c0-.26,2.9-.68,7.62-1.16,1.19-.09,2.32-.29,2.55-1.1s-.16-2.15-.7-3.55L1032,400c-4.54-13.05-7.79-23.76-7.26-23.94s4.63,10.25,9.17,23.3c1.09,3.22,2.13,6.28,3.12,9.22.41,1.36,1.14,2.92.49,4.69a3,3,0,0,1-2,1.69,8.19,8.19,0,0,1-2,.22C1028.75,415.26,1025.81,415.2,1025.8,414.93Z" transform="translate(-594.03 -197.04)"/><path class="cls-8" d="M1027.5,470.22a86.07,86.07,0,0,1-44.93-13.33s10.34,23.52,44.26,21.29Z" transform="translate(-594.03 -197.04)"/><path class="cls-8" d="M1023.52,426.12a8.38,8.38,0,0,0-7.45-3.33,7.69,7.69,0,0,0-5.38,2.69,4.88,4.88,0,0,0-.52,5.55c1.21,1.81,3.83,2.29,6.07,1.72a17.74,17.74,0,0,0,6.06-3.39,5.18,5.18,0,0,0,1.37-1.35,1.54,1.54,0,0,0,0-1.73" transform="translate(-594.03 -197.04)"/><path class="cls-5" d="M1012,417.78c.76,0,.63,5,4.86,8.75s9.64,3.31,9.66,4c.06.31-1.23.95-3.51.94a12.57,12.57,0,0,1-8.07-3.06,11,11,0,0,1-3.75-7.33C1011,419,1011.64,417.74,1012,417.78Z" transform="translate(-594.03 -197.04)"/><path class="cls-5" d="M1011.54,361.63c-.5,1.25-5.14.52-10.63,1s-10,1.88-10.65.72c-.31-.55.49-1.72,2.31-2.9a18.56,18.56,0,0,1,16.21-1.34C1010.77,360,1011.75,361,1011.54,361.63Z" transform="translate(-594.03 -197.04)"/><path class="cls-5" d="M1054.36,366.72c-.85,1-4-.15-7.9-.31s-7.15.52-7.88-.61c-.31-.55.23-1.6,1.69-2.56A11.45,11.45,0,0,1,1053,364C1054.32,365.11,1054.73,366.21,1054.36,366.72Z" transform="translate(-594.03 -197.04)"/><path class="cls-5" d="M953.33,385.23s-8.29,4.44-17,15.4c-5.38,6.75-8.87,15.47-7.53,24,1.86,11.81,12.1,20.21,21.62,27.44,5.48.8,9.56-5.26,10.42-10.73s.08-11.39,2.68-16.29c2.32-4.39,6.92-7.08,10-11,5.71-7.28,5.32-17.52,3.93-26.67s.05-23,11.75-36C989.15,351.4,960.58,362.61,953.33,385.23Z" transform="translate(-594.03 -197.04)"/><path class="cls-5" d="M943.19,415.67c5-7.09,3.68-17.51-2-24.08s-14.88-9.42-23.52-8.68c-6.3.54-12.67,3-16.73,7.85S895.64,403,899,408.39c1.86,2.95,5.12,5.74,4.37,9.16s-4.61,4.53-7.38,6.45c-4.83,3.36-6.7,10.15-4.85,15.74s7,9.77,12.74,11.09a23.38,23.38,0,0,0,17-3c0,5.26,5.65,9.27,10.88,8.82s9.67-4.25,12.47-8.69c4-6.27,5.33-13.91,5.15-21.32s-1.79-14.72-3.4-22" transform="translate(-594.03 -197.04)"/><path class="cls-9" d="M951.85,453.67a3.33,3.33,0,0,1-.77-.49L949,451.65c-1.82-1.37-4.46-3.35-7.53-6A55.17,55.17,0,0,1,931.84,435a32.24,32.24,0,0,1-5.61-16.57,22.91,22.91,0,0,1,1.42-9.05,22.28,22.28,0,0,1,4.58-7.21c3.76-4,8-6.52,11.28-8.84a65.7,65.7,0,0,0,7.62-5.82c.84-.76,1.46-1.39,1.86-1.82a4,4,0,0,1,.67-.63s-.16.27-.54.74a18.79,18.79,0,0,1-1.76,1.95,56.24,56.24,0,0,1-7.51,6.07c-3.28,2.39-7.42,5-11,8.88a21.73,21.73,0,0,0-4.38,7,22.38,22.38,0,0,0-1.35,8.73,32.09,32.09,0,0,0,5.41,16.17,57.22,57.22,0,0,0,9.35,10.63c3,2.73,5.57,4.78,7.32,6.22l2,1.67A3.43,3.43,0,0,1,951.85,453.67Z" transform="translate(-594.03 -197.04)"/><path class="cls-9" d="M927.76,410.89c-.14.09-1-1.72-3.16-4a20.74,20.74,0,0,0-22.42-5.49c-3,1.05-4.57,2.26-4.66,2.12a4.16,4.16,0,0,1,1.07-.9A18.54,18.54,0,0,1,902,400.8a20.21,20.21,0,0,1,23.08,5.66,17.44,17.44,0,0,1,2.17,3.14A4.11,4.11,0,0,1,927.76,410.89Z" transform="translate(-594.03 -197.04)"/><path class="cls-9" d="M901.46,419.87c-.1,0,.51-1.62,2.72-3a11.86,11.86,0,0,1,4.19-1.52,28.32,28.32,0,0,1,5.39-.3,38.2,38.2,0,0,1,9.64,1.51,13.53,13.53,0,0,1,3.75,1.51,34.47,34.47,0,0,1-3.91-.92,47.94,47.94,0,0,0-9.5-1.25c-3.75-.14-7.15.27-9.26,1.49A12.37,12.37,0,0,0,901.46,419.87Z" transform="translate(-594.03 -197.04)"/><path class="cls-9" d="M895.83,446.66c0-.15,2.34-.1,6-.82A34.65,34.65,0,0,0,925,429.65c1.94-3.2,2.7-5.43,2.85-5.37a5.54,5.54,0,0,1-.45,1.59,27.36,27.36,0,0,1-1.88,4.08A32.84,32.84,0,0,1,902,446.44a27,27,0,0,1-4.48.35A5.24,5.24,0,0,1,895.83,446.66Z" transform="translate(-594.03 -197.04)"/><path class="cls-9" d="M929.4,410.37c.06-.08,1,.88,3.06,2a18.65,18.65,0,0,0,9.6,2.11,22.12,22.12,0,0,0,6.7-1.29,24.4,24.4,0,0,0,6.81-3.87c4.37-3.44,8-8.53,10.78-14.34a146.59,146.59,0,0,0,6.24-17.13,98.88,98.88,0,0,1,5.43-14,42.43,42.43,0,0,1,5.46-8.5,23.41,23.41,0,0,1,1.87-2,4.22,4.22,0,0,1,.72-.63c.06.05-.88,1-2.33,2.86a46.29,46.29,0,0,0-5.18,8.55,106.67,106.67,0,0,0-5.22,13.94,138.94,138.94,0,0,1-6.22,17.25A40,40,0,0,1,956.05,410a25,25,0,0,1-7,3.92,22.21,22.21,0,0,1-6.92,1.22,18.34,18.34,0,0,1-9.78-2.42,11.36,11.36,0,0,1-1.33-.88,8.93,8.93,0,0,1-.9-.74A4.26,4.26,0,0,1,929.4,410.37Z" transform="translate(-594.03 -197.04)"/><path class="cls-9" d="M977.51,380c.08.05-.6,1-1.36,2.9a29.18,29.18,0,0,0-1.64,8.51c-.34,3.66-.2,8.14-1.46,13a27,27,0,0,1-8.6,13.42,25.93,25.93,0,0,1-14.62,6.31,27.3,27.3,0,0,1-12.9-2,25.92,25.92,0,0,1-7.48-4.65,16.23,16.23,0,0,1-1.69-1.71c-.36-.41-.54-.63-.51-.65s.81.81,2.42,2.1a27.74,27.74,0,0,0,20.08,6.11,25.49,25.49,0,0,0,14.15-6.17,26.76,26.76,0,0,0,8.39-13c1.27-4.66,1.21-9.13,1.61-12.81a27.24,27.24,0,0,1,2-8.59,13.2,13.2,0,0,1,1.15-2.11C977.31,380.2,977.48,380,977.51,380Z" transform="translate(-594.03 -197.04)"/><path class="cls-9" d="M1074.61,422.46c0-.07.56-.52,1.44-1.52a15.38,15.38,0,0,0,2.86-4.81,19.61,19.61,0,0,0,1.17-8.18,26.94,26.94,0,0,0-2.8-9.77c-3.25-6.56-7.72-11.59-10.64-15.43a42,42,0,0,1-3.19-4.77,9,9,0,0,1-.91-1.9,11.15,11.15,0,0,1,1.19,1.72c.75,1.13,1.87,2.71,3.39,4.58,3,3.72,7.6,8.73,10.92,15.43a26.7,26.7,0,0,1,2.82,10.09,19.59,19.59,0,0,1-1.38,8.45,14.52,14.52,0,0,1-3.19,4.82,9.12,9.12,0,0,1-1.2,1C1074.79,422.38,1074.63,422.48,1074.61,422.46Z" transform="translate(-594.03 -197.04)"/><path class="cls-9" d="M1069.76,432.05c-.17-.14,2.2-1.84,4.06-5.86a19,19,0,0,0,1.62-7.48,23.34,23.34,0,0,0-1.91-9.19,79.74,79.74,0,0,0-4.41-8.48c-1.43-2.6-2.66-5-3.66-7s-1.76-3.64-2.26-4.79a8.21,8.21,0,0,1-.67-1.84,9.25,9.25,0,0,1,1,1.69q1,1.89,2.5,4.67c1.06,2,2.35,4.29,3.8,6.86a71.92,71.92,0,0,1,4.52,8.54,23.18,23.18,0,0,1,1.9,9.52,18.63,18.63,0,0,1-1.86,7.72,16,16,0,0,1-3.09,4.36,10.34,10.34,0,0,1-1.09,1C1069.92,432,1069.78,432.07,1069.76,432.05Z" transform="translate(-594.03 -197.04)"/><path class="cls-6" d="M951.73,389.58c11.22-19.16,26.92-37,48.52-42.14a79.56,79.56,0,0,1,62.29,10.44V320.11l-27-87-21-11.07-49.63,28.34L952.1,355Z" transform="translate(-594.03 -197.04)"/><g class="cls-10"><path class="cls-3" d="M951.73,389.58c11.22-19.16,26.92-37,48.52-42.14a79.56,79.56,0,0,1,62.29,10.44V320.11l-27-87-21-11.07-49.63,28.34L952.1,355Z" transform="translate(-594.03 -197.04)"/></g><path class="cls-5" d="M1061.49,321.48a6.82,6.82,0,0,1-1.19-.56c-.77-.37-1.87-1-3.35-1.68a72.33,72.33,0,0,0-12.89-4.82,84.42,84.42,0,0,0-20.15-2.91,103.58,103.58,0,0,0-12,.45,61.73,61.73,0,0,0-12.67,2.31A85.17,85.17,0,0,0,977,325.41,78,78,0,0,0,961.81,339a61.65,61.65,0,0,0-7.61,11.43l-1.52,3.43a7.21,7.21,0,0,1-.58,1.18,7.6,7.6,0,0,1,.42-1.25c.31-.8.74-2,1.38-3.5a57.16,57.16,0,0,1,7.45-11.67,76.3,76.3,0,0,1,15.15-13.85A84.51,84.51,0,0,1,999,313.45a62.28,62.28,0,0,1,12.84-2.32,100.65,100.65,0,0,1,12.14-.4,82.87,82.87,0,0,1,20.3,3.11,66.76,66.76,0,0,1,12.86,5.1c1.48.71,2.55,1.41,3.29,1.83A8.77,8.77,0,0,1,1061.49,321.48Z" transform="translate(-594.03 -197.04)"/><path class="cls-5" d="M1028.7,311.38c-.23,0-3.75-19.85-7.85-44.41s-7.25-44.52-7-44.55,3.74,19.84,7.85,44.41S1028.93,311.34,1028.7,311.38Z" transform="translate(-594.03 -197.04)"/><path class="cls-5" d="M995.81,315c-.24,0,.14-18.88.83-42.14s1.45-42.13,1.68-42.12-.13,18.87-.83,42.14S996,315,995.81,315Z" transform="translate(-594.03 -197.04)"/><path class="cls-5" d="M967.82,330.64a3.27,3.27,0,0,1,0-.9c0-.68.06-1.53.1-2.57.12-2.24.32-5.47.64-9.45.62-8,1.71-19,3.23-31.09s3.2-23,4.57-30.92c.69-3.94,1.28-7.12,1.73-9.31.21-1,.39-1.85.53-2.52a3.46,3.46,0,0,1,.25-.87,4.28,4.28,0,0,1-.08.9l-.37,2.55c-.37,2.33-.86,5.49-1.46,9.35-1.22,7.9-2.8,18.83-4.33,30.93s-2.69,23.08-3.47,31c-.37,3.89-.68,7.08-.9,9.42-.11,1-.2,1.88-.27,2.56A3.41,3.41,0,0,1,967.82,330.64Z" transform="translate(-594.03 -197.04)"/><path class="cls-5" d="M1033.48,317.74a17,17,0,0,1-.09,3.8c-.19,2.66-.41,5.73-.66,9.12s-.49,6.46-.69,9.12a17.76,17.76,0,0,1-.48,3.77,16,16,0,0,1-.13-3.81c0-2.34.18-5.58.45-9.14s.61-6.79.91-9.12A16.9,16.9,0,0,1,1033.48,317.74Z" transform="translate(-594.03 -197.04)"/><path class="cls-6" d="M877.09,690.43c-2.07-3-7.62-5.71-11.26-6.1-12.59-1.38-24.06,4-34,11.92l-2,3.55c-5.35,4.17-10.92,8.92-12.58,15.49s-2.13,14.07-2.27,20.84c-.06,3.1,1.36,6.59,4.25,10a13.71,13.71,0,0,0,9.2,4.47,33.53,33.53,0,0,0,19.19-4.3,52.72,52.72,0,0,0,15-13,73.72,73.72,0,0,0,15.34-32.7C878.73,697.17,879.06,693.32,877.09,690.43Z" transform="translate(-594.03 -197.04)"/><g class="cls-11"><path d="M877.09,690.43c-2.07-3-7.62-5.71-11.26-6.1-12.59-1.38-24.06,4-34,11.92l-2,3.55c-5.35,4.17-10.92,8.92-12.58,15.49s-2.13,14.07-2.27,20.84c-.06,3.1,1.36,6.59,4.25,10a13.71,13.71,0,0,0,9.2,4.47,33.53,33.53,0,0,0,19.19-4.3,52.72,52.72,0,0,0,15-13,73.72,73.72,0,0,0,15.34-32.7C878.73,697.17,879.06,693.32,877.09,690.43Z" transform="translate(-594.03 -197.04)"/></g><path class="cls-6" d="M875.72,505.18c-2,.65-100.18,139.85-102.82,149.07s-17,31.33,3.3,52a403.68,403.68,0,0,0,40.14,35.61c-4.55-35.08,30-63.37,54-56l-18.43-12.51,42.14-56" transform="translate(-594.03 -197.04)"/><path class="cls-6" d="M1079.81,534.27s15.45,19.31,19.31,31.83c3.31,10.68,20.81,60.11,20.81,60.11l31.91,79.08s-4.85,7-6,12.91c-.46,2.35-4.52,38.67-14.18,54.14l-51.18-22.88L1074,703.65,1065.21,664l9.12-106.27Z" transform="translate(-594.03 -197.04)"/><path class="cls-6" d="M936.17,485.09s13.16-12.1,16.75-13.8c0,0,4.17,14.2,16.34,20.92s20.11,14,20.11,14.93v17.62S939.32,511.08,936.17,485.09Z" transform="translate(-594.03 -197.04)"/><path class="cls-6" d="M944.54,574.71l97.34-5.88-4.49-55.6-4.24-9.43L1026.56,492a18.59,18.59,0,0,1-4.6,10.79c-8,8.73-19.78,10.46-19.78,10.46l-1.92,11.53L951,504.38s-6.43,67.13-6.43,68.73" transform="translate(-594.03 -197.04)"/><path class="cls-5" d="M1002.18,513.23a4.27,4.27,0,0,1-.07.75c-.08.54-.19,1.27-.32,2.21-.31,2-.76,4.88-1.34,8.6l0,.15h-.15l-40,1.23-6.6.19-3.42.09a10.44,10.44,0,0,0-3.32.43,7.52,7.52,0,0,0-4.63,4.66,8.94,8.94,0,0,0-.38,3.49c0,1.23,0,2.47.07,3.73.21,10,.44,20.64.67,31.63.75,30.78,1.22,58.65,1.08,78.82,0,10.09-.17,18.25-.29,23.89-.08,2.78-.14,5-.18,6.49,0,.71-.05,1.27-.07,1.69a2.65,2.65,0,0,1,0,.58,2.9,2.9,0,0,1,0-.58c0-.42,0-1,0-1.69,0-1.54,0-3.71,0-6.49,0-5.69,0-13.84,0-23.89,0-20.17-.59-48-1.33-78.8-.22-11-.44-21.61-.64-31.64,0-1.25,0-2.5-.06-3.73a9.5,9.5,0,0,1,.44-3.76,8.22,8.22,0,0,1,5.13-5.13,10.71,10.71,0,0,1,3.55-.46l3.42-.08,6.6-.16,40.06-.88-.18.16c.65-3.71,1.16-6.58,1.51-8.57.18-.93.32-1.66.42-2.2A6,6,0,0,1,1002.18,513.23Z" transform="translate(-594.03 -197.04)"/><circle class="cls-5" cx="359.3" cy="349.19" r="4.17"/><path class="cls-5" d="M976.62,541.76c0,.25-4.7.86-10.4,2.19s-10.21,2.84-10.29,2.6,4.33-2.1,10.1-3.43S976.6,541.54,976.62,541.76Z" transform="translate(-594.03 -197.04)"/><path class="cls-5" d="M969.63,550c-.08.23-3.27-.7-7.27-1.53s-7.3-1.27-7.28-1.52,3.39-.17,7.45.69S969.71,549.82,969.63,550Z" transform="translate(-594.03 -197.04)"/><circle class="cls-5" cx="359.3" cy="396.26" r="4.17"/><path class="cls-5" d="M976.62,588.83c0,.25-4.7.86-10.4,2.19s-10.21,2.84-10.29,2.6,4.33-2.1,10.1-3.43S976.6,588.61,976.62,588.83Z" transform="translate(-594.03 -197.04)"/><path class="cls-5" d="M969.63,597.1c-.08.23-3.27-.7-7.27-1.53s-7.3-1.27-7.28-1.52,3.39-.17,7.45.68S969.71,596.89,969.63,597.1Z" transform="translate(-594.03 -197.04)"/><circle class="cls-5" cx="359.3" cy="443.33" r="4.17"/><path class="cls-5" d="M976.62,635.9c0,.25-4.7.86-10.4,2.19s-10.21,2.83-10.29,2.6,4.33-2.11,10.1-3.43S976.6,635.68,976.62,635.9Z" transform="translate(-594.03 -197.04)"/><path class="cls-5" d="M969.63,644.17c-.08.23-3.27-.7-7.27-1.53s-7.3-1.28-7.28-1.52,3.39-.17,7.45.68S969.71,644,969.63,644.17Z" transform="translate(-594.03 -197.04)"/><path class="cls-5" d="M888.12,630.07a6.05,6.05,0,0,1,.23-1.19c.2-.85.48-2,.82-3.37.72-2.92,1.8-7.14,3-12.37s2.59-11.5,3.66-18.52a128,128,0,0,0,1.5-23A85.44,85.44,0,0,0,893.47,549a66.69,66.69,0,0,0-8.11-16.9,55.12,55.12,0,0,0-8.2-9.64c-1.06-1.06-2-1.74-2.6-2.28a8.17,8.17,0,0,1-.89-.82,5.52,5.52,0,0,1,1,.69,34,34,0,0,1,2.71,2.17,51.61,51.61,0,0,1,8.48,9.54,65.21,65.21,0,0,1,8.35,17,83.62,83.62,0,0,1,4,22.85,123,123,0,0,1-1.58,23.13c-1.11,7-2.54,13.31-3.84,18.54s-2.48,9.42-3.3,12.32l-1,3.32A7.71,7.71,0,0,1,888.12,630.07Z" transform="translate(-594.03 -197.04)"/><path class="cls-5" d="M886.6,628.63a12.06,12.06,0,0,1-.55-2.18c-.32-1.42-.68-3.48-1.06-6.05a129.75,129.75,0,0,1,.58-40.37c.44-2.55.87-4.61,1.22-6a12.87,12.87,0,0,1,.62-2.17,11.26,11.26,0,0,1-.29,2.23c-.25,1.43-.59,3.49-1,6a153.22,153.22,0,0,0-.57,40.21c.3,2.56.57,4.63.78,6.06A10.57,10.57,0,0,1,886.6,628.63Z" transform="translate(-594.03 -197.04)"/><path class="cls-5" d="M793.39,671.33a22.52,22.52,0,0,1,2.55-.64,34.42,34.42,0,0,0,6.59-2.65c2.69-1.37,5.72-3.3,9.17-5.36s7.41-4.24,12.1-5a20.5,20.5,0,0,1,12.88,2.11,39.46,39.46,0,0,1,8.68,6.26,53.88,53.88,0,0,1,5,5.21,13.81,13.81,0,0,1,1.59,2.11,17.1,17.1,0,0,1-1.84-1.89,68.59,68.59,0,0,0-5.12-5,41.29,41.29,0,0,0-8.63-6,19.93,19.93,0,0,0-12.39-2c-4.49.74-8.39,2.92-11.84,4.86s-6.55,3.9-9.3,5.22A30.3,30.3,0,0,1,796,671a17.67,17.67,0,0,1-1.94.29A2,2,0,0,1,793.39,671.33Z" transform="translate(-594.03 -197.04)"/><path class="cls-5" d="M827.34,637.23a6.56,6.56,0,0,1,1.56.6,15,15,0,0,1,1.75.88,25.76,25.76,0,0,1,2.23,1.34,36.26,36.26,0,0,1,5.28,4.22A38.29,38.29,0,0,1,847.3,658a35.92,35.92,0,0,1,1.85,6.51,24.45,24.45,0,0,1,.38,2.58,14.75,14.75,0,0,1,.13,1.95,6.38,6.38,0,0,1,0,1.67c-.17,0-.22-2.37-1.05-6.07a39.89,39.89,0,0,0-2-6.34,44.72,44.72,0,0,0-3.8-7.18,45.3,45.3,0,0,0-5.16-6.29,41,41,0,0,0-5.07-4.28C829.44,638.35,827.26,637.38,827.34,637.23Z" transform="translate(-594.03 -197.04)"/><g class="cls-11"><path d="M848.88,668.67a40,40,0,0,0-34.51-23.83,11.8,11.8,0,0,0-5.83.91,5.06,5.06,0,0,0-3,4.74,13.63,13.63,0,0,1,.46,2.86c-.24,2.2-2.94,3-5.06,3.58a21.43,21.43,0,0,0-10.54,6.86c-1.43,1.71-2.57,4.29-1.2,6.05,1.12,1.44,3.28,1.44,5.08,1.12,6.75-1.18,12.77-4.82,18.94-7.8s13.11-5.39,19.79-3.88c7.4,1.67,12.88,7.7,17.86,13.42" transform="translate(-594.03 -197.04)"/></g><path class="cls-5" d="M1065.21,664a3.57,3.57,0,0,1-.61.72l-1.87,1.93c-.81.84-1.83,1.85-3.06,3s-2.58,2.44-4.2,3.76a140.13,140.13,0,0,1-11.62,9,158.8,158.8,0,0,1-15.39,9.3A154.82,154.82,0,0,1,1012,699a143.61,143.61,0,0,1-14,4.43c-2,.57-3.87.93-5.49,1.3s-3,.63-4.17.82l-2.65.43a3.68,3.68,0,0,1-.94.09,3.9,3.9,0,0,1,.91-.26l2.61-.59c1.15-.23,2.54-.53,4.14-1s3.44-.81,5.43-1.42c4-1.09,8.73-2.63,13.88-4.57a170.43,170.43,0,0,0,16.3-7.35,167.81,167.81,0,0,0,15.33-9.19c4.53-3.11,8.49-6.1,11.68-8.77,1.64-1.29,3-2.57,4.27-3.65s2.3-2,3.15-2.85l2-1.81A4.1,4.1,0,0,1,1065.21,664Z" transform="translate(-594.03 -197.04)"/><path class="cls-5" d="M1080.47,556.27a5.37,5.37,0,0,1-.11,1.11c-.12.8-.28,1.84-.48,3.13-.44,2.82-1.06,6.74-1.81,11.52-1.5,9.74-3.48,23.19-5.52,38.08s-3.8,28.3-5.12,38.15c-.65,4.8-1.17,8.73-1.55,11.56l-.46,3.14a5.21,5.21,0,0,1-.21,1.08,4.82,4.82,0,0,1,0-1.1c.08-.81.17-1.86.3-3.16.31-2.84.75-6.78,1.28-11.6,1.14-9.78,2.82-23.29,4.87-38.19s4.12-28.34,5.77-38c.85-4.86,1.54-8.78,2.09-11.48l.63-3.11A5.15,5.15,0,0,1,1080.47,556.27Z" transform="translate(-594.03 -197.04)"/><path class="cls-5" d="M1025,718.31a7.63,7.63,0,0,1,.89-1.57c.62-1,1.55-2.38,2.71-4.08,2.34-3.42,5.66-8.07,9.49-13.09s7.43-9.46,10.1-12.62c1.34-1.58,2.44-2.84,3.22-3.69a7.51,7.51,0,0,1,1.28-1.28,7.44,7.44,0,0,1-1,1.49l-3,3.86c-2.55,3.25-6.07,7.74-9.89,12.76s-7.22,9.59-9.68,12.92l-2.92,3.92A7.63,7.63,0,0,1,1025,718.31Z" transform="translate(-594.03 -197.04)"/><path class="cls-5" d="M1130.51,684.19a21.89,21.89,0,0,1-2.63-1.08c-1.67-.73-4.09-1.76-7.17-2.83a70.06,70.06,0,0,0-24.86-4.18,19.69,19.69,0,0,0-6.93,1.43,18,18,0,0,0-5.45,3.69,28.48,28.48,0,0,0-6.15,9.41c-1.27,3-2,5.52-2.59,7.25a19.2,19.2,0,0,1-.93,2.69,15.69,15.69,0,0,1,.61-2.78,63.17,63.17,0,0,1,2.35-7.39,28.27,28.27,0,0,1,6.16-9.74,18.51,18.51,0,0,1,5.67-3.9,20.51,20.51,0,0,1,7.22-1.51,67.07,67.07,0,0,1,25.11,4.46,73.53,73.53,0,0,1,7.11,3.09c.82.4,1.44.75,1.86,1S1130.52,684.16,1130.51,684.19Z" transform="translate(-594.03 -197.04)"/><path class="cls-5" d="M1118.24,658.46c0,.17-2.57.09-6.62.79a42.61,42.61,0,0,0-6.95,1.84,48.17,48.17,0,0,0-7.92,3.8,46.29,46.29,0,0,0-7,5.34,41.08,41.08,0,0,0-4.8,5.35c-2.47,3.28-3.57,5.61-3.72,5.53a7.35,7.35,0,0,1,.7-1.66,17.32,17.32,0,0,1,1-1.87,24.68,24.68,0,0,1,1.52-2.36,38.2,38.2,0,0,1,4.75-5.56,40.59,40.59,0,0,1,15.19-9.31,39.08,39.08,0,0,1,7.12-1.7,26.08,26.08,0,0,1,2.79-.27,14.31,14.31,0,0,1,2.12,0A7.4,7.4,0,0,1,1118.24,658.46Z" transform="translate(-594.03 -197.04)"/><path class="cls-6" d="M1131.42,762.31c-1.38-10.71-8.86-20.31-18.71-24.72-7.8-3.49-18.6-4.29-26,0s-17.35,14.85-15.34,23.17l17,28.6c8.56,6.57,21.3,6.82,30.37.95S1132.8,773,1131.42,762.31Z" transform="translate(-594.03 -197.04)"/><g class="cls-11"><path d="M1131.42,762.31c-1.38-10.71-8.86-20.31-18.71-24.72-7.8-3.49-18.6-4.29-26,0s-17.35,14.85-15.34,23.17l17,28.6c8.56,6.57,21.3,6.82,30.37.95S1132.8,773,1131.42,762.31Z" transform="translate(-594.03 -197.04)"/></g><path class="cls-5" d="M1126.12,783.16c-.07,0,.59-1.15,1.67-3.2a32.81,32.81,0,0,0,2.94-9.27,29.94,29.94,0,0,0-1.25-14.23,35.54,35.54,0,0,0-1.57-3.86,34.77,34.77,0,0,0-2.21-3.73,30.81,30.81,0,0,0-6.11-6.74,30.27,30.27,0,0,0-7.81-4.65,31.86,31.86,0,0,0-22.47-.06,34,34,0,0,0-8.59,4.59c-1.85,1.38-2.8,2.26-2.85,2.19a3.87,3.87,0,0,1,.64-.67,21.44,21.44,0,0,1,2-1.79,31.76,31.76,0,0,1,8.58-4.88,31.89,31.89,0,0,1,23-.16,30.86,30.86,0,0,1,8.05,4.77,31.49,31.49,0,0,1,6.27,6.93,37.65,37.65,0,0,1,2.25,3.84,34.41,34.41,0,0,1,1.57,4,30,30,0,0,1,1.11,14.58,31,31,0,0,1-3.24,9.33c-.56,1-1.1,1.76-1.42,2.28A4.92,4.92,0,0,1,1126.12,783.16Z" transform="translate(-594.03 -197.04)"/><path class="cls-5" d="M1079.28,742.94c-.23,0-2.22-11.18-4.45-25.06s-3.84-25.16-3.61-25.2,2.23,11.18,4.45,25.06S1079.51,742.91,1079.28,742.94Z" transform="translate(-594.03 -197.04)"/><g class="cls-11"><path d="M1068.18,677.42l8.7-.59A40.09,40.09,0,0,1,1102,659.46a15.64,15.64,0,0,1,7.26-.14,7.07,7.07,0,0,1,5.14,4.74c.6,2.37-.84,5.23-3.24,5.68a18,18,0,0,1,11.38,9c.49.94.85,2.21.1,3a2.66,2.66,0,0,1-2,.53c-4-.06-8-.9-12-1.09s-8.27.35-11.53,2.71-5.05,6.16-6.6,9.85a198.78,198.78,0,0,0-12.12,41.17c-2-8-2.2-16.46-3.66-24-2.08-10.73-4.1-21.71-6.58-33.51" transform="translate(-594.03 -197.04)"/></g><g class="cls-11"><path d="M879.43,749.79c10.84,11.57,25.46,17,41.11,19.53s31.62,1.65,47.45.75c3.9-.22,8.53-.9,10.23-4.43,1.21-2.49.39-5.46-.59-8.06-7-18.46-20.78-33.39-34.27-47.8-4.93-5.27-10.19-10.76-17.09-12.88-7.59-2.33-16.21-.27-23.41-3.62-8.64-4-12.17-14.21-14.84-23.36-2.76-9.43-2.76-9.43-5.51-18.85,1.21,20.53,1,37,1,37s-5.67,37.95-5,46.56S879.43,749.79,879.43,749.79Z" transform="translate(-594.03 -197.04)"/></g><path class="cls-5" d="M987.32,515.53a11.79,11.79,0,0,1-2.15-.48c-1.38-.35-3.34-1-5.73-1.8A94.39,94.39,0,0,1,946,492.46c-1.82-1.77-3.24-3.26-4.16-4.34a11.18,11.18,0,0,1-1.38-1.72,11.2,11.2,0,0,1,1.63,1.49c1,1,2.46,2.42,4.32,4.13a106.11,106.11,0,0,0,33.28,20.66c2.35.92,4.27,1.61,5.61,2.05A10.9,10.9,0,0,1,987.32,515.53Z" transform="translate(-594.03 -197.04)"/><path class="cls-5" d="M1033,506.43a4.1,4.1,0,0,1-.62,1.21,25.82,25.82,0,0,1-2.12,3A38.47,38.47,0,0,1,1010,523.84a25,25,0,0,1-3.64.71,4.4,4.4,0,0,1-1.36.08c0-.15,1.88-.46,4.83-1.37a43,43,0,0,0,19.93-13C1031.83,508,1032.88,506.35,1033,506.43Z" transform="translate(-594.03 -197.04)"/><path class="cls-5" d="M1040.6,516.53c.2.06-1.51,4.43-5.34,8.67s-7.94,6.46-8,6.27,3.7-2.68,7.39-6.83S1040.36,516.41,1040.6,516.53Z" transform="translate(-594.03 -197.04)"/><path class="cls-7" d="M954.63,711.4l1-.21c3.63-.71,15.69-2.9,17.64-1,2.29,2.29,18.63,18.34,18.63,18.34s-3.15,5.16-13.47,0S954.63,711.4,954.63,711.4Z" transform="translate(-594.03 -197.04)"/><path class="cls-5" d="M931.46,678.82h0a8.29,8.29,0,0,1,11.28,2l49.8,66.06-12.76,9.3-50.29-65.41A8.28,8.28,0,0,1,931.46,678.82Z" transform="translate(-594.03 -197.04)"/><path class="cls-7" d="M817.58,723.05s59.15,9.59,67.29,10.25S915.5,757.73,922,760s24.11,2,24.11,2,31.93,1.66,32.91,0,2.93-1.32,0-7.51a62.46,62.46,0,0,0-6.52-10.76s8.15,10.1,10.43,10.43,7.17.91,6.84-3.45S981,728.41,981,728.41s-3.59-8.37-10.11-10.21S936,702.67,936,702.67h-30.3l-35.38-16.81S849,679,828.57,701.44a44,44,0,0,0-8.85,15.36Z" transform="translate(-594.03 -197.04)"/><path class="cls-8" d="M986.69,741.88a7.84,7.84,0,0,1-.88-1.72c-.57-1.3-1.27-2.91-2.11-4.81-.88-2.11-1.9-4.53-3-7.19a15.54,15.54,0,0,0-5.16-7.53,23.74,23.74,0,0,0-4.24-2.33l-4.19-1.87c-2.68-1.17-5.1-2.2-7.14-3l-4.85-2a8.33,8.33,0,0,1-1.74-.82,8.88,8.88,0,0,1,1.86.51c1.18.39,2.87,1,4.95,1.76s4.53,1.75,7.23,2.89l4.22,1.83a24.06,24.06,0,0,1,4.4,2.4,16,16,0,0,1,5.4,8c1.06,2.67,2,5.1,2.85,7.22l1.85,4.9A9.57,9.57,0,0,1,986.69,741.88Z" transform="translate(-594.03 -197.04)"/><path class="cls-8" d="M957,725.47a15.52,15.52,0,0,1,3.12,2.42,66.73,66.73,0,0,1,6.64,6.87,65.88,65.88,0,0,1,5.59,7.73,14.66,14.66,0,0,1,1.84,3.5,24.7,24.7,0,0,1-2.34-3.17c-1.39-2-3.38-4.68-5.75-7.52s-4.68-5.25-6.39-7A21.28,21.28,0,0,1,957,725.47Z" transform="translate(-594.03 -197.04)"/><path class="cls-8" d="M973.86,762.44a3.7,3.7,0,0,1-1.25-.49,23.79,23.79,0,0,1-3.1-1.91,52.82,52.82,0,0,1-8.64-8.31c-3.07-3.51-5.8-6.73-7.75-9.08a28.61,28.61,0,0,1-3-3.93,29.08,29.08,0,0,1,3.47,3.53c2.06,2.25,4.87,5.41,7.93,8.92a65.83,65.83,0,0,0,8.36,8.39C972.24,761.45,973.92,762.31,973.86,762.44Z" transform="translate(-594.03 -197.04)"/><path class="cls-8" d="M956.3,762.41a12.42,12.42,0,0,1-3-1.53,71.32,71.32,0,0,1-6.82-4.58c-2.55-1.95-4.74-3.87-6.27-5.31a13.46,13.46,0,0,1-2.33-2.48c.18-.2,4.06,3.24,9.12,7.11S956.43,762.19,956.3,762.41Z" transform="translate(-594.03 -197.04)"/><path class="cls-7" d="M1053.33,787s-5.2-8-5.91-10.9,0-16.52-9.58-14.37v1c.24,1.17,0,28.93,0,28.93Z" transform="translate(-594.03 -197.04)"/><path class="cls-6" d="M930.7,801.52s-8.84,81.52,86.61,79.15c77.81-1.94,76.44-77.79,76.44-77.79Z" transform="translate(-594.03 -197.04)"/><ellipse class="cls-6" cx="416.77" cy="605.24" rx="88.94" ry="21.5"/><ellipse class="cls-12" cx="418.09" cy="604.47" rx="81.63" ry="13.59"/><path class="cls-5" d="M1096.72,808.43s-.11.1-.36.26l-1.1.69c-1,.62-2.44,1.44-4.38,2.44a87,87,0,0,1-17.23,6.46,215.6,215.6,0,0,1-26.85,5,260.57,260.57,0,0,1-33.39,1.64c-11.86-.1-23.16-.49-33.4-1.39a190.44,190.44,0,0,1-27-4.2,120.07,120.07,0,0,1-17.57-5.48c-2-.76-3.55-1.51-4.6-2l-1.18-.55a1.64,1.64,0,0,1-.39-.22,1.71,1.71,0,0,1,.43.14l1.21.47c1.07.41,2.6,1.11,4.65,1.82a130.37,130.37,0,0,0,17.59,5.2,198.09,198.09,0,0,0,26.91,4c10.22.85,21.51,1.22,33.35,1.32a268.92,268.92,0,0,0,33.29-1.57,224.92,224.92,0,0,0,26.78-4.82,92.09,92.09,0,0,0,17.24-6.18c2-.94,3.45-1.72,4.44-2.28l1.15-.62A1.77,1.77,0,0,1,1096.72,808.43Z" transform="translate(-594.03 -197.04)"/><path class="cls-7" d="M1042.23,799.68s9.73-32.63,13.08-37c2.77-3.58,22.39-18.42,29.13-23.47a16,16,0,0,1,5.55-2.69c6.67-1.77,13.33-2.94,24.32,1.82a27.74,27.74,0,0,1,15,16.15l-36.63,22.76-1.42,15.41-29.48-7.51s.37-1.57-.87-4.5C1060.88,780.68,1051.54,803.39,1042.23,799.68Z" transform="translate(-594.03 -197.04)"/><path class="cls-4" d="M1006.89,776.52c-3.72-5-6.82-9.66-9.29-13.66s-4.2-7.4-5.37-9.76a24.68,24.68,0,0,0-1.91-3.64,25.94,25.94,0,0,0,1.45,3.85,106.48,106.48,0,0,0,5.05,10,161.35,161.35,0,0,0,9.12,13.9c3.67,5.07,8,10.43,12.55,16,6.38,7.67,12.29,14.84,17.09,21.12l1.32-.06c-4.8-6.53-10.84-14-17.41-21.88C1014.91,786.84,1010.6,781.52,1006.89,776.52Z" transform="translate(-594.03 -197.04)"/><path class="cls-4" d="M983.47,753.14a27,27,0,0,0,1.56,3.8c1.06,2.41,2.6,5.9,4.41,10.25a341.79,341.79,0,0,1,12.35,34.65c1.28,4.6,2.64,9.07,4.24,13.22h1.32c-1.62-4.21-3-8.78-4.33-13.58a283.06,283.06,0,0,0-12.74-34.64c-1.93-4.32-3.6-7.76-4.8-10.11A23.41,23.41,0,0,0,983.47,753.14Z" transform="translate(-594.03 -197.04)"/><path class="cls-4" d="M986.69,749.23a26.4,26.4,0,0,0,1.76,3.74c1.21,2.37,3,5.79,5.24,10,4.51,8.38,10.82,19.92,18.51,32.26,4.45,7.18,8.92,13.76,13,19.5l1.38,0c-4.17-5.92-8.74-12.73-13.34-20.14-7.66-12.3-14.09-23.76-18.8-32l-5.6-9.78A23.83,23.83,0,0,0,986.69,749.23Z" transform="translate(-594.03 -197.04)"/><path class="cls-4" d="M1058.36,805.25a54.34,54.34,0,0,0-14.5-19.9,131.91,131.91,0,0,0-18-13.13c-5.9-3.72-11.42-7.1-16.23-10.52A113.8,113.8,0,0,1,989,742.9c-2.15-2.51-3.73-4.54-4.79-5.92L983,735.4a3.7,3.7,0,0,0-.44-.51,2.49,2.49,0,0,0,.33.59l1.1,1.65c1,1.44,2.52,3.52,4.62,6.09a108.34,108.34,0,0,0,20.47,19.22c4.8,3.49,10.33,6.93,16.19,10.68a132.53,132.53,0,0,1,17.81,13.11,53.23,53.23,0,0,1,14.14,19.51,39.93,39.93,0,0,1,2.18,6.91l1.27-.13A41.85,41.85,0,0,0,1058.36,805.25Z" transform="translate(-594.03 -197.04)"/><path class="cls-4" d="M1055.41,810.65a56.86,56.86,0,0,0-8.75-14.94A95.2,95.2,0,0,0,1031.42,781c-5.89-4.66-11.77-8.7-17-12.49s-9.88-7.31-13.57-10.5a99.4,99.4,0,0,1-8.33-8,40.34,40.34,0,0,0-2.89-3.12s.16.35.58.94,1.06,1.44,1.93,2.51a81.5,81.5,0,0,0,8.1,8.37c3.65,3.3,8.25,6.95,13.48,10.78s11.07,7.92,16.91,12.54a98.45,98.45,0,0,1,15.12,14.45,58.59,58.59,0,0,1,8.82,14.52c.29.71.54,1.39.78,2.07l.85-.08C1056,812.21,1055.71,811.45,1055.41,810.65Z" transform="translate(-594.03 -197.04)"/><path class="cls-4" d="M1012.43,803.06c-6.28-11.52-11.58-22.16-15.33-29.9-1.79-3.71-3.28-6.8-4.42-9.18a20.55,20.55,0,0,0-1.75-3.32,20.55,20.55,0,0,0,1.29,3.52c.91,2.23,2.28,5.44,4,9.37,3.55,7.85,8.73,18.58,15,30.13,2.13,3.92,4.25,7.67,6.31,11.22l1.41,0C1016.89,811.15,1014.68,807.19,1012.43,803.06Z" transform="translate(-594.03 -197.04)"/><path class="cls-4" d="M1025.54,788.34a337.23,337.23,0,0,1-25-27.44c-3-3.69-5.37-6.72-7-8.82a26.75,26.75,0,0,0-2.63-3.19,24.6,24.6,0,0,0,2.23,3.49c1.52,2.19,3.78,5.32,6.71,9.09a279.91,279.91,0,0,0,24.81,27.79c5.18,5.13,10.44,9.66,14.85,14.1a68.71,68.71,0,0,1,8.6,10.26l1.09-.08a65.29,65.29,0,0,0-8.84-11C1035.91,798,1030.69,793.44,1025.54,788.34Z" transform="translate(-594.03 -197.04)"/><path class="cls-4" d="M998.63,810.91c-2.18-6.58-3.66-12.91-5-18.66-2.65-11.53-5.12-20.86-7.76-27a47.57,47.57,0,0,0-4.72-9.16,3.29,3.29,0,0,0,.28.63c.23.46.53,1,.9,1.76a74.93,74.93,0,0,1,3.07,7c2.48,6.13,4.8,15.43,7.34,27,1.33,5.77,2.75,12.12,4.91,18.78.43,1.26.89,2.55,1.38,3.84h1.17C999.61,813.68,999.1,812.28,998.63,810.91Z" transform="translate(-594.03 -197.04)"/><path class="cls-5" d="M1064.67,791.12l.39,0c.26,0,.64,0,1.15,0,1,.08,2.47.25,4.35.52a99.64,99.64,0,0,1,15.76,3.49,35.59,35.59,0,0,1,4.94,2.17,6.78,6.78,0,0,1,2.24,1.95,3.77,3.77,0,0,1,.46,3.11,4.32,4.32,0,0,1-2.14,2.41,17.39,17.39,0,0,1-2.83,1.51,47.88,47.88,0,0,1-6.25,2.17A193.58,193.58,0,0,1,1054,814c-20.68,2.45-39.57,2-53.15,1.47-6.8-.27-12.3-.59-16.09-.82l-4.37-.31-1.14-.1a1.34,1.34,0,0,1-.39-.06,1.25,1.25,0,0,1,.39,0h1.14l4.38.15,16.1.54c13.58.35,32.43.73,53-1.71a199.22,199.22,0,0,0,28.66-5.44,47.4,47.4,0,0,0,6.16-2.1,17,17,0,0,0,2.74-1.44,3.58,3.58,0,0,0,1.85-2,3.07,3.07,0,0,0-.35-2.54,6.1,6.1,0,0,0-2-1.76,34.39,34.39,0,0,0-4.8-2.17,108.78,108.78,0,0,0-15.61-3.73c-1.87-.32-3.33-.54-4.32-.68S1064.67,791.16,1064.67,791.12Z" transform="translate(-594.03 -197.04)"/><path class="cls-8" d="M1072.62,771c.15.2-2.91,2.58-6.39,5.81s-6.11,6.08-6.3,5.92,2.17-3.28,5.72-6.55S1072.5,770.77,1072.62,771Z" transform="translate(-594.03 -197.04)"/><path class="cls-8" d="M1071.89,783.89c-.12.22-2.26-1.19-5.26-1.09s-5.08,1.52-5.22,1.31.36-.58,1.27-1.11a8.49,8.49,0,0,1,7.9-.17C1071.51,783.32,1072,783.81,1071.89,783.89Z" transform="translate(-594.03 -197.04)"/><path class="cls-9" d="M774.61,445.64c-1,.75-52.92,24.08-52.92,24.08s14.31,30.39,42.08,16.85C789.12,474.21,774.61,445.64,774.61,445.64Z" transform="translate(-594.03 -197.04)"/><path class="cls-9" d="M774,277.81c1.17,0,2.13,40.35,2.13,90.11S775.21,458,774,458s-2.14-40.33-2.14-90.11S772.86,277.81,774,277.81Z" transform="translate(-594.03 -197.04)"/><path class="cls-9" d="M737.06,399.53c-.95.75-52.92,24.08-52.92,24.08s14.31,30.39,42.08,16.85C751.57,428.1,737.06,399.53,737.06,399.53Z" transform="translate(-594.03 -197.04)"/><path class="cls-9" d="M736.48,274.76c1.18,0,2.14,30.71,2.14,68.58s-1,68.58-2.14,68.58-2.13-30.7-2.13-68.58S735.31,274.76,736.48,274.76Z" transform="translate(-594.03 -197.04)"/><path class="cls-9" d="M691.57,354c-1,.75-52.92,24.08-52.92,24.08S653,408.51,680.73,395C706.08,382.61,691.57,354,691.57,354Z" transform="translate(-594.03 -197.04)"/><path class="cls-9" d="M691,279.4c1.18,0,2.14,19.49,2.14,43.51s-1,43.52-2.14,43.52-2.13-19.48-2.13-43.52S689.81,279.4,691,279.4Z" transform="translate(-594.03 -197.04)"/><circle class="cls-9" cx="241.83" cy="203.78" r="53.09"/><polygon class="cls-9" points="239.84 156.62 235.67 88.34 255.24 88.34 249.83 156.62 239.84 156.62"/><path class="cls-5" d="M858.2,438.07a1.54,1.54,0,0,1-.35.24l-1.08.63c-.48.26-1,.63-1.77,1l-2.52,1.14a43.83,43.83,0,0,1-17.24,3.17,45,45,0,0,1-24.66-7.83,39.75,39.75,0,0,1-10.72-11.1,45.42,45.42,0,0,1-6.79-31.87,39.43,39.43,0,0,1,5.27-14.51,45,45,0,0,1,19.32-17.2,43.74,43.74,0,0,1,17-4.13h2.76c.8,0,1.47.13,2,.17l1.23.14a1.75,1.75,0,0,1,.42.07,1.34,1.34,0,0,1-.42,0l-1.24-.06c-.55,0-1.22-.08-2-.09l-2.75.07a44.94,44.94,0,0,0-35.7,21.4,39.26,39.26,0,0,0-5.12,14.24,45,45,0,0,0,6.67,31.29A39.32,39.32,0,0,0,811,435.76a45,45,0,0,0,41.32,5l2.53-1.06c.73-.32,1.31-.66,1.8-.9l1.11-.55A1.91,1.91,0,0,1,858.2,438.07Z" transform="translate(-594.03 -197.04)"/><polygon class="cls-9" points="28.95 0 47.75 68.02 127.38 68.02 146.18 0 28.95 0"/><path class="cls-5" d="M736.48,210.53c0,.23-24.57.42-54.88.42s-54.89-.19-54.89-.42,24.57-.43,54.89-.43S736.48,210.29,736.48,210.53Z" transform="translate(-594.03 -197.04)"/><path class="cls-5" d="M751.08,214.59h-16.3l2.61-7.12h13.69a3.56,3.56,0,0,1,3.56,3.56h0A3.56,3.56,0,0,1,751.08,214.59Z" transform="translate(-594.03 -197.04)"/><path class="cls-5" d="M612,214.59h16.3l-2.61-7.12H612a3.56,3.56,0,0,0-3.55,3.56h0A3.55,3.55,0,0,0,612,214.59Z" transform="translate(-594.03 -197.04)"/><rect class="cls-6" x="8.82" y="67.09" width="297.4" height="21.26"/><path class="cls-6" d="M1285,566.81a8.86,8.86,0,0,0-11.44,5l-13.2,35.35h0l16.42,6,13.29-35A8.86,8.86,0,0,0,1285,566.81Z" transform="translate(-594.03 -197.04)"/><path class="cls-13" d="M1284.64,578a3.77,3.77,0,1,1-3.77-3.77A3.77,3.77,0,0,1,1284.64,578Z" transform="translate(-594.03 -197.04)"/><path class="cls-13" d="M1275.29,601.17a3.77,3.77,0,1,1-3.77-3.77A3.77,3.77,0,0,1,1275.29,601.17Z" transform="translate(-594.03 -197.04)"/><polygon class="cls-1" points="666.32 410.13 640.9 476.43 672.2 476.04 697.72 421.25 666.32 410.13"/><rect class="cls-6" x="602.28" y="476.43" width="87.68" height="100.83"/><path class="cls-3" d="M1284,698.6c0,.23-19.63.42-43.84.42s-43.84-.19-43.84-.42,19.63-.43,43.84-.43S1284,698.36,1284,698.6Z" transform="translate(-594.03 -197.04)"/><path class="cls-3" d="M1284,709.45c0,.24-19.63.43-43.84.43s-43.84-.19-43.84-.43,19.63-.42,43.84-.42S1284,709.22,1284,709.45Z" transform="translate(-594.03 -197.04)"/><path class="cls-3" d="M1284,720.31c0,.23-19.63.42-43.84.42s-43.84-.19-43.84-.42,19.63-.43,43.84-.43S1284,720.07,1284,720.31Z" transform="translate(-594.03 -197.04)"/><path class="cls-3" d="M1284,731.16c0,.24-19.63.43-43.84.43s-43.84-.19-43.84-.43,19.63-.42,43.84-.42S1284,730.93,1284,731.16Z" transform="translate(-594.03 -197.04)"/><path class="cls-3" d="M1284,742c0,.23-19.63.42-43.84.42s-43.84-.19-43.84-.42,19.63-.43,43.84-.43S1284,741.78,1284,742Z" transform="translate(-594.03 -197.04)"/><path class="cls-3" d="M1284,752.87c0,.24-19.63.43-43.84.43s-43.84-.19-43.84-.43,19.63-.42,43.84-.42S1284,752.64,1284,752.87Z" transform="translate(-594.03 -197.04)"/><path class="cls-9" d="M1144.78,618l58.63,4.69s1.67-28.47-25.8-31.48S1144.78,618,1144.78,618Z" transform="translate(-594.03 -197.04)"/><path class="cls-9" d="M1219.49,673.48c-1.12.38-7.21-14.23-13.61-32.63s-10.68-33.65-9.57-34,7.2,14.22,13.6,32.64S1220.6,673.09,1219.49,673.48Z" transform="translate(-594.03 -197.04)"/><path class="cls-9" d="M1223,866.59a5.34,5.34,0,0,1-1.16.25l-3.36.56-2.43.38c-.89.11-1.86.19-2.91.29-2.09.18-4.47.49-7.12.52l-4.15.15c-1.44,0-2.94,0-4.5-.07-3.11,0-6.42-.31-9.91-.58a134.15,134.15,0,0,1-43.72-12c-3.14-1.55-6.15-3-8.83-4.55-1.35-.78-2.68-1.47-3.9-2.24l-3.5-2.24c-2.26-1.38-4.15-2.86-5.86-4.08-.84-.62-1.64-1.18-2.35-1.74l-1.9-1.56-2.6-2.19a6.27,6.27,0,0,1-.87-.81,7.29,7.29,0,0,1,1,.68l2.7,2.06,1.93,1.5c.72.53,1.54,1.07,2.39,1.67,1.73,1.18,3.63,2.62,5.91,4l3.5,2.18c1.23.75,2.56,1.43,3.91,2.19,2.68,1.56,5.69,2.94,8.82,4.46a138.21,138.21,0,0,0,43.47,11.91c3.46.29,6.76.63,9.85.66,1.55,0,3,.13,4.48.11L1206,868c2.64,0,5-.26,7.1-.39,1-.09,2-.13,2.91-.23l2.43-.3,3.37-.4A6.26,6.26,0,0,1,1223,866.59Z" transform="translate(-594.03 -197.04)"/><path class="cls-9" d="M1153.22,860.12c-12.3-1.64-28.36,3.12-37.56,11.45a121.32,121.32,0,0,0,37.56-11.45" transform="translate(-594.03 -197.04)"/><path class="cls-9" d="M1153.84,860.27c4.5-11.56-2.15-27.85-2.15-27.85-1.3-2.2-.72,15,2.15,27.85" transform="translate(-594.03 -197.04)"/><path class="cls-9" d="M1134.44,851.1c3.29-8.49-1.49-20.42-1.49-20.42-.93-1.61-.55,11,1.49,20.42" transform="translate(-594.03 -197.04)"/><path class="cls-9" d="M1171.2,864.31c3.29-8.49-1.49-20.42-1.49-20.42-.93-1.61-.55,11,1.49,20.42" transform="translate(-594.03 -197.04)"/><path class="cls-9" d="M1134.81,851.28c-9.16-1.22-21.1,2.32-28,8.52a90.39,90.39,0,0,0,28-8.52" transform="translate(-594.03 -197.04)"/><path class="cls-9" d="M1173.08,865.68c-13,.18-28.9,7.55-37.17,17.58a127.07,127.07,0,0,0,37.17-17.58" transform="translate(-594.03 -197.04)"/><path class="cls-6" d="M1222.61,803.63a26.49,26.49,0,0,0-46.43,4.34c-3.13,7.37-2.72,16,.37,23.37a41.88,41.88,0,0,0,15.3,18.07c17.32,11.79,42.45,11.26,58.55-2.16,6-5,10.78-11.79,11.88-19.49a24.27,24.27,0,0,0-35.91-24.59" transform="translate(-594.03 -197.04)"/><path class="cls-9" d="M1222.67,803.59a9.25,9.25,0,0,0-9.8-6.76q2.89,3.46,5.8,6.91a9,9,0,0,0-7.13,5.59c-.27.71-.35,1.7.32,2a1.8,1.8,0,0,0,1.46-.15l7-2.92a24.23,24.23,0,0,0,4.2,10.93,28.66,28.66,0,0,0,2.65-11l7.78,3.45a11.52,11.52,0,0,0-3.65-5.76,19.42,19.42,0,0,0,6.51-2.54c.6-.37,1.26-1,1-1.67s-.84-.64-1.38-.69a25.65,25.65,0,0,0-14.84,3.08" transform="translate(-594.03 -197.04)"/><path class="cls-9" d="M1222.16,806.5a50.7,50.7,0,0,0-1.94-23.49c1.86-.42,4.14-.69,5.34.78a5,5,0,0,1,.79,3.14,55.1,55.1,0,0,1-4.16,21.66" transform="translate(-594.03 -197.04)"/><path class="cls-3" d="M1184.37,834.71a5.75,5.75,0,0,1-1.22-1.22,20.88,20.88,0,0,1-2.6-3.92,24,24,0,0,1,4.74-28.7A21.16,21.16,0,0,1,1189,798a5.26,5.26,0,0,1,1.54-.76,50.29,50.29,0,0,0-4.84,4,24.45,24.45,0,0,0-4.63,28A48.36,48.36,0,0,0,1184.37,834.71Z" transform="translate(-594.03 -197.04)"/><path class="cls-3" d="M1192.18,840.61c-.08.22-1.31-.05-2.55-.94s-1.89-2-1.71-2.1,1.06.6,2.21,1.41S1192.27,840.38,1192.18,840.61Z" transform="translate(-594.03 -197.04)"/><path class="cls-9" d="M862.84,713.7c-.71.16,4.58,26.75,4.58,26.75H881l6-25.69S876.92,710.54,862.84,713.7Z" transform="translate(-594.03 -197.04)"/><path class="cls-4" d="M854.69,863.34s-19.94-55.81-17.14-71,8.77-18.34,13.55-23.12,8.77-8.77,10-13.55,0-23.92,0-23.92-3.59-5.58-2.4-7.58,30.7,0,30.7,0A13.44,13.44,0,0,1,887,731s-.8,22.32.4,24.72,19.53,22.72,22.32,33.08-11,74.55-11,74.55Z" transform="translate(-594.03 -197.04)"/><path class="cls-5" d="M854.69,863.34l.77,0,2.25,0,8.65-.06,32.33-.15-.27.22c1.7-8.11,3.54-17.31,5.4-27.43s3.82-21.16,5.17-33c.32-3,.6-6,.67-9a21.41,21.41,0,0,0-.27-4.54,22.25,22.25,0,0,0-1.62-4.3,105.06,105.06,0,0,0-10.64-16.09c-2-2.63-4.09-5.23-6.2-7.86-1.06-1.32-2.13-2.63-3.16-4-.26-.33-.51-.72-.76-1.11a5.33,5.33,0,0,1-.33-1.37,25.9,25.9,0,0,1-.24-2.6c-.3-6.9-.09-13.89.11-21v-.11l.07-.11a14.7,14.7,0,0,0,.91-1.57,12.73,12.73,0,0,0,1.41-5l.4.43c-6.73-.43-13.37-.77-19.88-.87a61.65,61.65,0,0,0-9.57.37,2.42,2.42,0,0,0-.84.29,1.56,1.56,0,0,0-.19.87,7.07,7.07,0,0,0,.48,2.16,24.62,24.62,0,0,0,2.07,4.1l.06.1v.1c.29,5.1.49,10.11.52,15a71.91,71.91,0,0,1-.28,7.35,14.7,14.7,0,0,1-2.67,6.77,42.72,42.72,0,0,1-4.54,5.42c-1.62,1.66-3.21,3.29-4.89,4.83a50.7,50.7,0,0,0-4.71,4.67,25.51,25.51,0,0,0-3.51,5.36A42.85,42.85,0,0,0,837.81,793a27.27,27.27,0,0,0-.07,5.85c.13,1.93.4,3.83.67,5.68,1.17,7.4,2.88,14.15,4.47,20.26,3.27,12.19,6.36,21.8,8.49,28.39,1.07,3.27,1.9,5.8,2.48,7.55.27.84.49,1.48.64,1.95s.2.67.2.67-.11-.22-.27-.65l-.71-1.92c-.62-1.7-1.5-4.23-2.62-7.51-2.2-6.57-5.38-16.15-8.72-28.35a207.12,207.12,0,0,1-4.59-20.29c-.28-1.87-.55-3.77-.69-5.73a28,28,0,0,1,0-6,43.62,43.62,0,0,1,3.62-12,25.74,25.74,0,0,1,3.59-5.52,52,52,0,0,1,4.76-4.74c1.65-1.52,3.24-3.16,4.85-4.82a41.33,41.33,0,0,0,4.44-5.32,13.91,13.91,0,0,0,2.53-6.43,69.37,69.37,0,0,0,.26-7.25c0-4.91-.24-9.92-.54-15l.07.2a24,24,0,0,1-2.16-4.26,7.82,7.82,0,0,1-.54-2.44,2.25,2.25,0,0,1,.37-1.39,2.37,2.37,0,0,1,1.34-.6,62.16,62.16,0,0,1,9.74-.4c6.53.1,13.18.44,19.93.87l.42,0,0,.4a13.56,13.56,0,0,1-1.51,5.36,16.42,16.42,0,0,1-1,1.66l.07-.23c-.2,7.07-.41,14.07-.11,20.9,0,.85.1,1.71.22,2.52a4.31,4.31,0,0,0,.26,1.11,11.08,11.08,0,0,0,.68,1c1,1.35,2.08,2.66,3.13,4,2.11,2.63,4.21,5.25,6.21,7.88a106.44,106.44,0,0,1,10.71,16.25,22.6,22.6,0,0,1,1.67,4.49,22.12,22.12,0,0,1,.28,4.71c-.08,3.1-.37,6.12-.69,9.1-1.39,11.88-3.4,22.91-5.28,33S900.7,855.29,899,863.4l-.05.21h-.22l-32.46-.14-8.61-.07-2.2,0C854.93,863.36,854.69,863.34,854.69,863.34Z" transform="translate(-594.03 -197.04)"/><path class="cls-6" d="M894.87,857.55a318.43,318.43,0,0,0,10-57c.17-2.2.17-4.74-1.49-6.2-2-1.77-5.14-.82-7.71,0a46.52,46.52,0,0,1-23.39,1.24c-7.55-1.56-15-5-22.66-3.76-1.91.32-3.91,1-5,2.64-1.24,1.84-.94,4.26-.59,6.44,3,18.74,9.1,40.28,14.07,56.61Z" transform="translate(-594.03 -197.04)"/><path class="cls-3" d="M899.88,796.68a8.87,8.87,0,0,1-1.44,1.56,35.31,35.31,0,0,1-4.51,3.63,40.25,40.25,0,0,1-36.66,4.61,36,36,0,0,1-5.27-2.4,8.77,8.77,0,0,1-1.78-1.16c.08-.15,2.66,1.46,7.25,3a41.79,41.79,0,0,0,36.12-4.54C897.66,798.75,899.76,796.56,899.88,796.68Z" transform="translate(-594.03 -197.04)"/><path class="cls-4" d="M982,409.74l-8,17.47s13.42,22,23.84,29.37a46.24,46.24,0,0,0,42.25,6.27s23.54-8.61,21.85-47.85c0,0-16.26-5.34-25.93-6.22s-31.16,5.07-39.33,4A114,114,0,0,1,982,409.74Z" transform="translate(-594.03 -197.04)"/><path class="cls-14" d="M981.83,410.14c-.1.15-4.2-2.4-9.16-5.69s-8.9-6.08-8.8-6.23,4.2,2.39,9.16,5.69S981.93,410,981.83,410.14Z" transform="translate(-594.03 -197.04)"/><path class="cls-14" d="M974.13,426.75c0,.18-2.52.58-5.65.89s-5.7.43-5.71.25,2.51-.58,5.64-.9S974.11,426.57,974.13,426.75Z" transform="translate(-594.03 -197.04)"/><path class="cls-1" d="M1052.79,449.11a4.31,4.31,0,0,1-.77.35c-.51.21-1.26.53-2.25.9a59,59,0,0,1-8.59,2.32,60.94,60.94,0,0,1-29.11-1.69,59.1,59.1,0,0,1-7.82-3.05,72.32,72.32,0,0,1-6.85-3.76c-4.24-2.6-7.88-5.2-11-7.31S980.8,433.09,979,432L977,430.75a4.17,4.17,0,0,1-.7-.47,4,4,0,0,1,.76.35c.5.25,1.22.63,2.13,1.15,1.83,1,4.42,2.63,7.55,4.71s6.79,4.61,11,7.18a76.37,76.37,0,0,0,6.81,3.7,60.33,60.33,0,0,0,7.74,3,61.93,61.93,0,0,0,15.77,2.71,62.71,62.71,0,0,0,13.07-.85,67.43,67.43,0,0,0,8.59-2.1l2.28-.78A4.36,4.36,0,0,1,1052.79,449.11Z" transform="translate(-594.03 -197.04)"/><path class="cls-14" d="M1058.44,432.23a3,3,0,0,1-.77.14l-2.23.27c-1.94.21-4.75.48-8.22.74a171.27,171.27,0,0,1-27.25,0,99.9,99.9,0,0,1-26.59-5.87,70.79,70.79,0,0,1-7.55-3.36c-.88-.43-1.53-.83-2-1.08a3.88,3.88,0,0,1-.67-.42,3.89,3.89,0,0,1,.73.31c.47.21,1.13.56,2,1,1.76.84,4.34,2,7.6,3.16a105.93,105.93,0,0,0,26.49,5.65,189.35,189.35,0,0,0,27.16.17l8.23-.53,2.24-.15A3.56,3.56,0,0,1,1058.44,432.23Z" transform="translate(-594.03 -197.04)"/><path class="cls-1" d="M1057.39,422.41c-7.29-2.38-14.67-4.74-22.31-5.4-7.46-.65-15,.34-22.43.81s-15.82,0-22.82-2.65l-1.88,0a97.9,97.9,0,0,0,69.49,8.17c.2-.06.44-.15.48-.35S1057.65,422.5,1057.39,422.41Z" transform="translate(-594.03 -197.04)"/><path class="cls-14" d="M1060.37,422.64a3.07,3.07,0,0,1-.79-.15l-2.22-.55c-1.93-.49-4.71-1.24-8.17-2a105.67,105.67,0,0,0-12.26-2.2,89.7,89.7,0,0,0-15.23-.25c-5.41.28-10.58.66-15.3.59A54.61,54.61,0,0,1,994,416.61a33.38,33.38,0,0,1-7.92-2.94c-.87-.48-1.54-.88-2-1.18a3.65,3.65,0,0,1-.65-.47c0-.06,1,.55,2.74,1.43a36.22,36.22,0,0,0,7.91,2.71,56.66,56.66,0,0,0,12.34,1.28c4.69,0,9.84-.36,15.27-.64a86.74,86.74,0,0,1,15.33.3,99.1,99.1,0,0,1,12.3,2.35c3.45.87,6.22,1.68,8.13,2.24l2.19.68A4.78,4.78,0,0,1,1060.37,422.64Z" transform="translate(-594.03 -197.04)"/><path class="cls-1" d="M982.38,427.38c6.54,3.71,13,7.88,20.14,10.14a124.77,124.77,0,0,0,44.16,5.92c1.15,0,2.68.2,2.81,1.34s-1,1.66-2,1.94a40.59,40.59,0,0,1-10.06,1.37,80.56,80.56,0,0,1-29.55-4.35,63.23,63.23,0,0,1-25-16.09" transform="translate(-594.03 -197.04)"/><path class="cls-14" d="M1043.33,442.19a16.33,16.33,0,0,1-3.63.81,52.8,52.8,0,0,1-17.85-.36,16.76,16.76,0,0,1-3.58-.95,29.8,29.8,0,0,1,3.66.49,69.16,69.16,0,0,0,17.72.36A30.92,30.92,0,0,1,1043.33,442.19Z" transform="translate(-594.03 -197.04)"/></svg>